# xmcd
#
# Track frame offsets:
#	150
#	12128
#	34762
#	47604
#	62922
#	78681
#	92416
#	101361
#	115821
#	129188
#	146299
#	159905
#	175664
#	188915
#	207100
#	224517
#	235257
#	247633
#	261666
#	273579
#	288131
#	306261
#	319481
#
# Disc length: 4427 seconds
#
# Revision: 0
# Processed by: cddbd v1.5.2PL0 Copyright (c) Steve Scherf et al.
# Submitted via: EasyCDDAExtractor 12.0.1.1
#
DISCID=3d114917
DTITLE=Tanya Tucker
DYEAR=2000
DGENRE=Country
TTITLE0=A Little To Late
TTITLE1=Already Gone
TTITLE2=Can I See You Tonight
TTITLE3=Hangin In
TTITLE4=If It Don't Come Easy
TTITLE5=If Your Heart Ain't Busy Tonig
TTITLE6=I'm So Lonesome I Could Cry
TTITLE7=Just Another Love
TTITLE8=Let Me Be There
TTITLE9=Love Me like You Use Too
TTITLE10=Loving Arms
TTITLE11=Oh What It Did To Me
TTITLE12=San Antonio Stroll
TTITLE13=Shes In Love With The Boy
TTITLE14=Some Kind of Trouble
TTITLE15=Son Of A Preacher Man
TTITLE16=Strong Enough To Bend
TTITLE17=Teddy Bear Song
TTITLE18=Walking Shoes
TTITLE19=What's Your Mama's Name Child
TTITLE20=When I Die I may not go to Hea
TTITLE21=Without You What Do I Do With
TTITLE22=Would You Lay With Me
EXTD=
EXTT0=
EXTT1=
EXTT2=
EXTT3=
EXTT4=
EXTT5=
EXTT6=
EXTT7=
EXTT8=
EXTT9=
EXTT10=
EXTT11=
EXTT12=
EXTT13=
EXTT14=
EXTT15=
EXTT16=
EXTT17=
EXTT18=
EXTT19=
EXTT20=
EXTT21=
EXTT22=
PLAYORDER=
